# This file uses centimeters as units for non-parametric coordinates.

mtllib Box.mtl
g default
v -11.039872 1.850857 11.039872
v 11.039872 1.850857 11.039872
v -11.039872 23.930601 11.039872
v 11.039872 23.930601 11.039872
v -11.039872 23.930601 -11.039872
v 11.039872 23.930601 -11.039872
v -11.039872 1.850857 -11.039872
v 11.039872 1.850857 -11.039872
vt 0.300684 0.012540
vt 0.300684 0.299110
vt 0.014114 0.299110
vt 0.014114 0.012540
vt 0.017387 0.014425
vt 0.302962 0.014425
vt 0.302962 0.300000
vt 0.017387 0.300000
vt 0.014114 0.299110
vt 0.014114 0.012540
vt 0.300684 0.012540
vt 0.300684 0.299110
vt 0.014114 0.299110
vt 0.014114 0.012539
vt 0.300684 0.012539
vt 0.300684 0.299110
vt 0.014114 0.299110
vt 0.014114 0.012539
vt 0.300684 0.012539
vt 0.300684 0.299110
vt 0.312040 0.977298
vt 0.312040 0.316914
vt 0.972424 0.316914
vt 0.972424 0.977298
vn 0.000000 0.000000 -1.000000
vn 0.000000 0.000000 -1.000000
vn 0.000000 0.000000 -1.000000
vn 0.000000 0.000000 -1.000000
vn 0.000000 -1.000000 0.000000
vn 0.000000 -1.000000 0.000000
vn 0.000000 -1.000000 0.000000
vn 0.000000 -1.000000 0.000000
vn 0.000000 0.000000 1.000000
vn 0.000000 0.000000 1.000000
vn 0.000000 0.000000 1.000000
vn 0.000000 0.000000 1.000000
vn 0.000000 1.000000 0.000000
vn 0.000000 1.000000 0.000000
vn 0.000000 1.000000 0.000000
vn 0.000000 1.000000 0.000000
vn -1.000000 0.000000 0.000000
vn -1.000000 0.000000 0.000000
vn -1.000000 0.000000 0.000000
vn -1.000000 0.000000 0.000000
vn 1.000000 0.000000 0.000000
vn 1.000000 0.000000 0.000000
vn 1.000000 0.000000 0.000000
vn 1.000000 0.000000 0.000000
s off
g pCube1
usemtl initialShadingGroup
f 1/17/1 3/18/2 4/19/3 2/20/4
f 3/9/5 5/10/6 6/11/7 4/12/8
f 5/21/9 7/22/10 8/23/11 6/24/12
f 7/13/13 1/14/14 2/15/15 8/16/16
f 2/1/17 4/2/18 6/3/19 8/4/20
f 7/5/21 5/6/22 3/7/23 1/8/24
